<?xml version="1.0" encoding="UTF-8"?>
<svg version="1.1" xmlns="http://www.w3.org/2000/svg" width="1024" height="1024">
<path d="M0 0 C337.92 0 675.84 0 1024 0 C1024 337.92 1024 675.84 1024 1024 C686.08 1024 348.16 1024 0 1024 C0 686.08 0 348.16 0 0 Z " fill="#FEF8ED" transform="translate(0,0)"/>
<path d="M0 0 C1.12784409 0.00031723 1.12784409 0.00031723 2.2784729 0.00064087 C14.10867499 0.03383333 25.13600078 0.95238381 36.5 4.375 C38.38138672 4.88353516 38.38138672 4.88353516 40.30078125 5.40234375 C55.72841358 9.98013117 70.19855639 18.0476365 82.5 28.375 C83.35722656 29.09300781 84.21445312 29.81101562 85.09765625 30.55078125 C93.21135728 37.6110806 100.68381325 45.30546678 106.5 54.375 C112.2086566 52.51440081 117.83845482 50.52010915 123.43359375 48.33984375 C144.76318556 41.62849448 169.54526063 43.79346588 189.45703125 53.76171875 C190.46121094 54.29410156 191.46539063 54.82648438 192.5 55.375 C193.49386719 55.87644531 194.48773437 56.37789062 195.51171875 56.89453125 C204.05033618 61.48194532 210.70844681 67.56712096 217.5 74.375 C218.2528125 75.11621094 219.005625 75.85742188 219.78125 76.62109375 C227.55366917 84.77904958 233.26695702 94.98601755 237.5 105.375 C238.40371338 105.3435791 238.40371338 105.3435791 239.32568359 105.31152344 C266.37100398 104.50052313 287.59354775 109.66627132 308.30078125 127.83203125 C323.58455777 142.2702323 334.97477499 163.50067166 335.703125 184.7734375 C336.10422473 210.17556858 329.53198278 231.97390683 312.5 251.375 C311.83484375 252.13554687 311.1696875 252.89609375 310.484375 253.6796875 C307.18852895 257.20746346 304.33207182 260.13217881 299.8515625 262.0234375 C295.70024605 263.87457113 292.12098817 265.52938343 289.5 269.375 C288.55325841 273.82259516 288.56803838 278.18838203 288.59375 282.72265625 C288.57538086 283.93763794 288.55701172 285.15261963 288.53808594 286.40441895 C288.49694089 289.39551693 288.48522551 292.38374147 288.5 295.375 C289.32668686 295.36833817 290.15337372 295.36167633 291.00511169 295.35481262 C298.87292135 295.29419734 306.74065033 295.2487731 314.60864162 295.21956348 C318.65171368 295.20404074 322.6945896 295.18305423 326.73754883 295.14868164 C330.65389437 295.11560154 334.57005371 295.09804695 338.4865284 295.09036827 C339.9657388 295.08491049 341.44494136 295.07425932 342.92407036 295.05780983 C370.28801884 294.76615833 395.72178965 302.86517954 416.01806641 321.79052734 C442.50802099 347.73502288 446.16996026 380.68196457 448.56640625 415.61340332 C448.87094017 419.98682632 449.1987441 424.3585052 449.5234375 428.73046875 C451.44799435 454.84496854 452.73577885 480.80401895 452.75 507 C452.75100708 508.29537689 452.75201416 509.59075378 452.75305176 510.92538452 C452.72524183 563.9953061 448.47128563 614.44637735 411.5 655.375 C410.80648437 656.15230469 410.11296875 656.92960938 409.3984375 657.73046875 C398.09357133 669.71188096 384.11200793 678.95426142 369.5 686.375 C368.88447266 686.69162598 368.26894531 687.00825195 367.63476562 687.33447266 C354.64991174 693.94074131 341.00339314 698.51404745 326.8125 701.75 C326.08248779 701.91781982 325.35247559 702.08563965 324.6003418 702.25854492 C320.14111408 703.21368871 316.0592226 703.53036014 311.5 703.375 C311.67951454 704.39117905 311.67951454 704.39117905 311.86265564 705.42788696 C313.36182381 714.13838563 314.52044561 722.88176956 315.62890625 731.6484375 C315.82520171 733.18635987 316.02173436 734.72425199 316.2184906 736.26211548 C316.7312955 740.27402683 317.24158049 744.28625404 317.75109863 748.29858398 C318.56927917 754.73947052 319.39060489 761.17995495 320.21336174 767.62025833 C320.49860114 769.8568398 320.7822901 772.09361396 321.06581116 774.33041382 C321.24116859 775.70644794 321.41657589 777.0824757 321.59204102 778.45849609 C321.81948753 780.24953262 321.81948753 780.24953262 322.05152893 782.07675171 C322.34657192 784.24662417 322.67583162 786.41216443 323.04185486 788.57119751 C325.62573468 804.38428384 322.78788402 821.15319816 313.5 834.375 C301.51331577 849.13500092 286.3898117 860.67152883 266.984375 863.05273438 C265.40741578 863.20408832 263.82913469 863.34209288 262.25 863.46875 C261.35925781 863.54637573 260.46851563 863.62400146 259.55078125 863.70397949 C246.55587577 864.77568451 233.52489494 865.31464605 220.5 865.875 C219.78400509 865.90614017 219.06801018 865.93728035 218.33031845 865.96936417 C127.67442371 869.91131992 37.0215516 870.66808927 -53.6875 868 C-54.7676387 867.96832859 -55.8477774 867.93665718 -56.96064758 867.90402603 C-174.01827119 864.4464352 -174.01827119 864.4464352 -189.5 857.375 C-190.60988281 856.88128906 -191.71976563 856.38757813 -192.86328125 855.87890625 C-209.84051257 847.55986341 -220.24205982 834.07323707 -226.5 816.375 C-230.53041877 804.19977663 -228.43612331 790.8489883 -226.70703125 778.42578125 C-226.51804531 777.01776149 -226.32995824 775.60962084 -226.1427002 774.20137024 C-225.74647824 771.23222777 -225.34512473 768.26384624 -224.93960571 765.29595947 C-224.30032283 760.61146153 -223.67706323 755.92491829 -223.05737305 751.23779297 C-222.95413884 750.45726437 -222.85090464 749.67673576 -222.74454212 748.87255478 C-222.53704914 747.30343527 -222.32960601 745.73430917 -222.12221336 744.16517639 C-221.81343057 741.83125244 -221.50371892 739.49745366 -221.19367981 737.16369629 C-209.10533017 646.15924461 -203.84993374 554.21551511 -197.62719727 416.34793091 C-197.50473843 413.48574952 -197.38145184 410.62360523 -197.2578125 407.76147461 C-195.94701925 377.40284216 -194.73638549 347.04407115 -193.91015625 316.66796875 C-193.88687319 315.81237617 -193.86359013 314.9567836 -193.83960152 314.07526398 C-193.61529721 305.79049916 -193.39843072 297.50560515 -193.20135021 289.22014523 C-193.12989232 286.23302279 -193.05545813 283.24597803 -192.98072624 280.25893593 C-192.93106123 278.21664587 -192.88627073 276.17428803 -192.84169006 274.13188171 C-192.81127121 272.91281631 -192.78085236 271.69375092 -192.74951172 270.43774414 C-192.72525116 269.38124161 -192.7009906 268.32473907 -192.67599487 267.23622131 C-192.50932597 264.52661615 -192.10364754 262.01820652 -191.5 259.375 C-192.02980469 259.31570313 -192.55960938 259.25640625 -193.10546875 259.1953125 C-196.60720025 257.99569812 -199.06929838 255.65094365 -201.8125 253.25 C-202.39427002 252.74573486 -202.97604004 252.24146973 -203.57543945 251.72192383 C-205.22532232 250.2821142 -206.86390369 248.83043291 -208.5 247.375 C-209.51707031 246.48748047 -209.51707031 246.48748047 -210.5546875 245.58203125 C-228.38374506 228.98991787 -237.81458538 204.17969956 -238.703125 180.18359375 C-239.1611747 154.66906568 -231.2553017 129.97873951 -213.43774414 111.37426758 C-212.12910717 110.03730612 -210.81475946 108.70594111 -209.5 107.375 C-208.93023437 106.73304688 -208.36046875 106.09109375 -207.7734375 105.4296875 C-195.71595941 92.13554499 -177.76843523 84.56690492 -160.5 81.375 C-159.54480469 81.19066406 -158.58960938 81.00632812 -157.60546875 80.81640625 C-144.43569471 78.9444761 -131.45448628 80.98602778 -118.5 83.375 C-117.80777344 81.704375 -117.80777344 81.704375 -117.1015625 80 C-109.95627677 63.12214964 -101.38933419 49.4087525 -88.5 36.375 C-87.84773437 35.65054688 -87.19546875 34.92609375 -86.5234375 34.1796875 C-65.17105128 10.94603377 -30.64532691 -0.07947592 0 0 Z " fill="#F8AB04" transform="translate(422.5,72.625)"/>
<path d="M0 0 C1.12784409 0.00031723 1.12784409 0.00031723 2.2784729 0.00064087 C14.10867499 0.03383333 25.13600078 0.95238381 36.5 4.375 C38.38138672 4.88353516 38.38138672 4.88353516 40.30078125 5.40234375 C55.72841358 9.98013117 70.19855639 18.0476365 82.5 28.375 C83.35722656 29.09300781 84.21445312 29.81101562 85.09765625 30.55078125 C93.21135728 37.6110806 100.68381325 45.30546678 106.5 54.375 C112.2086566 52.51440081 117.83845482 50.52010915 123.43359375 48.33984375 C144.76318556 41.62849448 169.54526063 43.79346588 189.45703125 53.76171875 C190.46121094 54.29410156 191.46539063 54.82648438 192.5 55.375 C193.49386719 55.87644531 194.48773437 56.37789062 195.51171875 56.89453125 C204.05033618 61.48194532 210.70844681 67.56712096 217.5 74.375 C218.2528125 75.11621094 219.005625 75.85742188 219.78125 76.62109375 C227.55366917 84.77904958 233.26695702 94.98601755 237.5 105.375 C238.40371338 105.3435791 238.40371338 105.3435791 239.32568359 105.31152344 C266.37100398 104.50052313 287.59354775 109.66627132 308.30078125 127.83203125 C323.58455777 142.2702323 334.97477499 163.50067166 335.703125 184.7734375 C336.10422473 210.17556858 329.53198278 231.97390683 312.5 251.375 C311.83484375 252.13554687 311.1696875 252.89609375 310.484375 253.6796875 C307.18852895 257.20746346 304.33207182 260.13217881 299.8515625 262.0234375 C295.70024605 263.87457113 292.12098817 265.52938343 289.5 269.375 C288.55325841 273.82259516 288.56803838 278.18838203 288.59375 282.72265625 C288.57538086 283.93763794 288.55701172 285.15261963 288.53808594 286.40441895 C288.49694089 289.39551693 288.48522551 292.38374147 288.5 295.375 C289.32668686 295.36833817 290.15337372 295.36167633 291.00511169 295.35481262 C298.87292135 295.29419734 306.74065033 295.2487731 314.60864162 295.21956348 C318.65171368 295.20404074 322.6945896 295.18305423 326.73754883 295.14868164 C330.65389437 295.11560154 334.57005371 295.09804695 338.4865284 295.09036827 C339.9657388 295.08491049 341.44494136 295.07425932 342.92407036 295.05780983 C370.28801884 294.76615833 395.72178965 302.86517954 416.01806641 321.79052734 C442.50802099 347.73502288 446.16996026 380.68196457 448.56640625 415.61340332 C448.87094017 419.98682632 449.1987441 424.3585052 449.5234375 428.73046875 C451.44799435 454.84496854 452.73577885 480.80401895 452.75 507 C452.75100708 508.29537689 452.75201416 509.59075378 452.75305176 510.92538452 C452.72524183 563.9953061 448.47128563 614.44637735 411.5 655.375 C410.80648437 656.15230469 410.11296875 656.92960938 409.3984375 657.73046875 C398.09357133 669.71188096 384.11200793 678.95426142 369.5 686.375 C368.88447266 686.69162598 368.26894531 687.00825195 367.63476562 687.33447266 C354.64991174 693.94074131 341.00339314 698.51404745 326.8125 701.75 C326.08248779 701.91781982 325.35247559 702.08563965 324.6003418 702.25854492 C320.14111408 703.21368871 316.0592226 703.53036014 311.5 703.375 C311.67951454 704.39117905 311.67951454 704.39117905 311.86265564 705.42788696 C313.36182381 714.13838563 314.52044561 722.88176956 315.62890625 731.6484375 C315.82520171 733.18635987 316.02173436 734.72425199 316.2184906 736.26211548 C316.7312955 740.27402683 317.24158049 744.28625404 317.75109863 748.29858398 C318.56927917 754.73947052 319.39060489 761.17995495 320.21336174 767.62025833 C320.49860114 769.8568398 320.7822901 772.09361396 321.06581116 774.33041382 C321.24116859 775.70644794 321.41657589 777.0824757 321.59204102 778.45849609 C321.81948753 780.24953262 321.81948753 780.24953262 322.05152893 782.07675171 C322.34657192 784.24662417 322.67583162 786.41216443 323.04185486 788.57119751 C325.62573468 804.38428384 322.78788402 821.15319816 313.5 834.375 C301.51331577 849.13500092 286.3898117 860.67152883 266.984375 863.05273438 C265.40741578 863.20408832 263.82913469 863.34209288 262.25 863.46875 C261.35925781 863.54637573 260.46851563 863.62400146 259.55078125 863.70397949 C246.55587577 864.77568451 233.52489494 865.31464605 220.5 865.875 C219.78400509 865.90614017 219.06801018 865.93728035 218.33031845 865.96936417 C127.67442371 869.91131992 37.0215516 870.66808927 -53.6875 868 C-54.7676387 867.96832859 -55.8477774 867.93665718 -56.96064758 867.90402603 C-174.01827119 864.4464352 -174.01827119 864.4464352 -189.5 857.375 C-190.60988281 856.88128906 -191.71976563 856.38757813 -192.86328125 855.87890625 C-209.84051257 847.55986341 -220.24205982 834.07323707 -226.5 816.375 C-230.53041877 804.19977663 -228.43612331 790.8489883 -226.70703125 778.42578125 C-226.51804531 777.01776149 -226.32995824 775.60962084 -226.1427002 774.20137024 C-225.74647824 771.23222777 -225.34512473 768.26384624 -224.93960571 765.29595947 C-224.30032283 760.61146153 -223.67706323 755.92491829 -223.05737305 751.23779297 C-222.95413884 750.45726437 -222.85090464 749.67673576 -222.74454212 748.87255478 C-222.53704914 747.30343527 -222.32960601 745.73430917 -222.12221336 744.16517639 C-221.81343057 741.83125244 -221.50371892 739.49745366 -221.19367981 737.16369629 C-209.10533017 646.15924461 -203.84993374 554.21551511 -197.62719727 416.34793091 C-197.50473843 413.48574952 -197.38145184 410.62360523 -197.2578125 407.76147461 C-195.94701925 377.40284216 -194.73638549 347.04407115 -193.91015625 316.66796875 C-193.88687319 315.81237617 -193.86359013 314.9567836 -193.83960152 314.07526398 C-193.61529721 305.79049916 -193.39843072 297.50560515 -193.20135021 289.22014523 C-193.12989232 286.23302279 -193.05545813 283.24597803 -192.98072624 280.25893593 C-192.93106123 278.21664587 -192.88627073 276.17428803 -192.84169006 274.13188171 C-192.81127121 272.91281631 -192.78085236 271.69375092 -192.74951172 270.43774414 C-192.72525116 269.38124161 -192.7009906 268.32473907 -192.67599487 267.23622131 C-192.50932597 264.52661615 -192.10364754 262.01820652 -191.5 259.375 C-192.02980469 259.31570313 -192.55960938 259.25640625 -193.10546875 259.1953125 C-196.60720025 257.99569812 -199.06929838 255.65094365 -201.8125 253.25 C-202.39427002 252.74573486 -202.97604004 252.24146973 -203.57543945 251.72192383 C-205.22532232 250.2821142 -206.86390369 248.83043291 -208.5 247.375 C-209.51707031 246.48748047 -209.51707031 246.48748047 -210.5546875 245.58203125 C-228.38374506 228.98991787 -237.81458538 204.17969956 -238.703125 180.18359375 C-239.1611747 154.66906568 -231.2553017 129.97873951 -213.43774414 111.37426758 C-212.12910717 110.03730612 -210.81475946 108.70594111 -209.5 107.375 C-208.93023437 106.73304688 -208.36046875 106.09109375 -207.7734375 105.4296875 C-195.71595941 92.13554499 -177.76843523 84.56690492 -160.5 81.375 C-159.54480469 81.19066406 -158.58960938 81.00632812 -157.60546875 80.81640625 C-144.43569471 78.9444761 -131.45448628 80.98602778 -118.5 83.375 C-117.80777344 81.704375 -117.80777344 81.704375 -117.1015625 80 C-109.95627677 63.12214964 -101.38933419 49.4087525 -88.5 36.375 C-87.84773437 35.65054688 -87.19546875 34.92609375 -86.5234375 34.1796875 C-65.17105128 10.94603377 -30.64532691 -0.07947592 0 0 Z M-83.5625 265.5625 C-107.46289156 277.91244653 -134.5927137 278.90609099 -160.5 273.375 C-162.49814558 273.03072492 -164.49755093 272.69329052 -166.5 272.375 C-167.29591208 280.84376857 -167.73190364 289.27971827 -167.96484375 297.78125 C-168.04225997 300.38468596 -168.11973632 302.98812014 -168.19726562 305.59155273 C-168.23685137 306.95604114 -168.27631934 308.32053298 -168.31567383 309.68502808 C-168.52192314 316.81246302 -168.741615 323.93948497 -168.96484375 331.06640625 C-168.98705364 331.77634295 -169.00926353 332.48627964 -169.03214645 333.21772957 C-169.44396451 346.29843179 -169.99255374 359.36972636 -170.62774658 372.44140625 C-171.12616268 382.72103138 -171.57231204 392.99833981 -171.89453125 403.28515625 C-173.25060463 446.17922349 -175.6426154 489.0068776 -178.07485485 531.85132504 C-178.43567594 538.21505402 -178.787192 544.5792373 -179.13493347 550.94369507 C-182.7486344 616.86054119 -189.36082147 682.42508769 -197.53515625 747.9140625 C-197.69397781 749.1877771 -197.85279938 750.4614917 -198.01643372 751.77380371 C-198.84931064 758.39523171 -199.7171832 765.01020741 -200.63623047 771.62011719 C-200.82373075 772.98008602 -201.01118552 774.34006112 -201.19859314 775.70004272 C-201.55177241 778.24705573 -201.91114712 780.79322101 -202.27809143 783.33828735 C-204.20103698 797.21756867 -204.80504327 809.3862635 -196.28125 821.2109375 C-188.00978892 831.26003715 -178.48763848 836.11094931 -165.5625 837.44384766 C-164.78749649 837.52627024 -164.01249298 837.60869282 -163.21400452 837.69361305 C-152.814556 838.72808422 -142.37745848 839.03892112 -131.9375 839.3984375 C-129.68715776 839.4805305 -127.43683251 839.56309034 -125.18652344 839.64608765 C-119.40890071 839.85717348 -113.63100674 840.05942494 -107.85296631 840.25871277 C-104.64880809 840.36983905 -101.4447524 840.48350159 -98.24072266 840.5982666 C-8.04488776 843.82289393 82.0181878 844.48166509 172.22729492 841.51428223 C176.43067062 841.37641418 180.63424559 841.24556937 184.83789062 841.11621094 C217.63872236 840.10975228 217.63872236 840.10975228 250.41705322 838.55053711 C252.32832252 838.44360811 254.24008255 838.3455581 256.15185547 838.24804688 C268.81657834 837.44928813 279.58248973 834.17663908 288.83203125 825.08203125 C295.75068908 817.00812443 298.79865979 809.23621924 298.74609375 798.59765625 C298.74302719 797.85330322 298.73996063 797.1089502 298.73680115 796.34204102 C298.62106189 788.89404653 297.62372988 781.67122475 296.45068359 774.32684326 C295.73219428 769.7887247 295.07339476 765.24177974 294.41015625 760.6953125 C294.26087677 759.67426422 294.11159729 758.65321594 293.95779419 757.60122681 C286.59719688 706.802138 281.38824313 655.84059472 277.66593933 604.65557098 C277.49955028 602.36881938 277.33217858 600.08214124 277.16467285 597.79547119 C275.4495314 574.3318284 273.91100099 550.85882295 272.5 527.375 C272.45481483 526.62652802 272.40962967 525.87805603 272.36307526 525.10690308 C269.51143721 477.83132941 267.80308444 430.52238354 266.3125 383.1875 C266.291061 382.50767421 266.26962199 381.82784842 266.24753332 381.12742186 C265.16805464 346.88007708 264.20245957 312.63227506 263.5 278.375 C262.88353104 278.445134 262.26706207 278.515268 261.63191223 278.58752728 C260.82243637 278.67874261 260.01296051 278.76995794 259.17895508 278.86393738 C258.37686111 278.95469638 257.57476715 279.04545538 256.74836731 279.13896465 C238.59597598 281.0446168 221.43988149 279.17683299 204.91796875 271.23046875 C202.11384565 270.23837996 201.19576308 270.174543 198.5 271.375 C196.73306698 272.67950467 195.0089349 274.04254718 193.3125 275.4375 C181.17675585 284.89162697 167.47337468 289.58228417 152.5 292.375 C151.53320312 292.56707031 150.56640625 292.75914062 149.5703125 292.95703125 C126.41533889 296.10917142 101.66598849 290.18860697 82.7578125 276.37109375 C81.22247116 275.15704589 79.70271137 273.92274336 78.20703125 272.66015625 C76.5898198 271.17451283 76.5898198 271.17451283 74.5 271.375 C72.92801897 273.15792626 72.92801897 273.15792626 71.3125 275.4375 C57.44366027 293.57150226 37.20540588 303.42836817 14.90625 307.06591797 C-8.55557479 310.07958175 -33.17599564 304.17752705 -52.078125 289.71484375 C-60.94562093 282.58687009 -68.47208955 274.42623516 -74.14453125 264.49609375 C-74.59183594 263.79613281 -75.03914062 263.09617187 -75.5 262.375 C-78.63358439 262.375 -80.82238925 264.08705575 -83.5625 265.5625 Z " fill="#201D18" transform="translate(422.5,72.625)"/>
<path d="M0 0 C0.69480469 0.60328125 1.38960938 1.2065625 2.10546875 1.828125 C2.91371094 2.49328125 3.72195313 3.1584375 4.5546875 3.84375 C13.09490984 11.11536351 19.36166695 19.5493996 24.79296875 29.328125 C27.43963136 33.9658549 29.11099955 36.78956614 34.10546875 38.828125 C40.78098017 39.44844708 44.38854605 38.0959677 49.98046875 34.578125 C51.38287453 33.74440685 52.78782115 32.9149474 54.1953125 32.08984375 C54.86675293 31.69458496 55.53819336 31.29932617 56.22998047 30.89208984 C60.02680823 28.73814876 63.95838053 27.16138072 68.10546875 25.828125 C68.77964844 25.60511719 69.45382812 25.38210937 70.1484375 25.15234375 C86.95639109 20.5167543 104.90746661 24.86705617 119.9140625 32.83984375 C124.89835895 35.94511535 128.97139618 39.68661705 133.10546875 43.828125 C133.7396875 44.39144531 134.37390625 44.95476562 135.02734375 45.53515625 C143.27675088 53.03627645 147.50353438 62.76146128 150.42041016 73.30834961 C151.81379257 78.30765576 153.24736307 82.33131765 157.35546875 85.640625 C162.59985678 87.9052471 166.89579892 86.95390424 172.16796875 85.328125 C186.03955705 81.37831307 201.23626906 84.06263813 213.98046875 90.515625 C219.67342081 93.9091715 224.42898159 98.15964552 229.10546875 102.828125 C229.75515625 103.46621094 230.40484375 104.10429687 231.07421875 104.76171875 C241.91111221 116.19274014 246.56175179 132.27297935 246.30859375 147.7578125 C245.12166219 165.69873948 237.22923055 180.82401281 224.10546875 192.828125 C220.9135297 195.45336167 217.65507375 197.7154001 214.10546875 199.828125 C213.35136719 200.28703125 212.59726562 200.7459375 211.8203125 201.21875 C196.40483066 209.76289019 177.20816763 211.43975453 160.27734375 206.94921875 C153.31093846 204.48695481 146.67768127 201.09944368 140.4453125 197.13671875 C137.03701136 195.23057371 133.86622193 195.19261005 130.10546875 195.828125 C125.67353282 197.94774653 122.96255834 201.0242028 119.60546875 204.578125 C106.57702083 217.78184352 90.64066076 222.15704201 72.48046875 222.328125 C63.33988452 222.24186128 55.48530328 221.7254657 47.10546875 217.828125 C46.22205811 217.43343018 46.22205811 217.43343018 45.32080078 217.03076172 C34.5604171 212.1416905 25.29910278 205.58082365 18.0234375 196.12109375 C15.55673505 193.17210325 13.71316056 192.04957808 9.921875 191.52734375 C9.17808594 191.52347656 8.43429687 191.51960937 7.66796875 191.515625 C6.55615234 191.49048828 6.55615234 191.49048828 5.421875 191.46484375 C2.23901435 191.96401077 0.64046225 192.8001302 -1.89453125 194.828125 C-3.56653925 197.39530496 -4.83690424 200.12423821 -6.14453125 202.890625 C-14.1753253 218.8345581 -25.93859345 228.15489769 -42.89453125 233.828125 C-59.62697242 238.58538769 -77.12856652 236.84589422 -92.58203125 229.140625 C-98.39357427 225.78585673 -103.15694775 221.54896792 -107.89453125 216.828125 C-108.45914063 216.28671875 -109.02375 215.7453125 -109.60546875 215.1875 C-114.83643389 209.70744128 -117.68647043 202.59379322 -120.89453125 195.828125 C-123.05979236 191.29292635 -124.49920626 188.46531999 -128.89453125 185.828125 C-134.54269535 184.34663934 -137.72651992 184.62121342 -142.7890625 187.4609375 C-145.08615569 188.95255645 -147.25953016 190.56862006 -149.45703125 192.203125 C-167.94852537 205.39919891 -193.4920309 207.82752759 -215.41015625 204.20703125 C-236.22494611 199.22476772 -255.96177729 185.98188125 -267.23120117 167.72485352 C-271.30096063 160.78052143 -273.92775734 153.62855033 -275.89453125 145.828125 C-276.06960205 145.21469238 -276.24467285 144.60125977 -276.42504883 143.96923828 C-278.92083151 132.58701566 -277.96564136 117.66112187 -273.89453125 106.828125 C-273.45947266 105.66023438 -273.45947266 105.66023438 -273.015625 104.46875 C-268.77366108 94.17444424 -262.66531869 85.74628944 -254.89453125 77.828125 C-253.98960937 76.88646484 -253.98960937 76.88646484 -253.06640625 75.92578125 C-241.52671419 64.86272864 -225.20305122 58.95265912 -209.39453125 58.328125 C-200.50072753 58.62754233 -191.36851316 60.85880818 -183.23828125 64.4375 C-178.63748042 66.35091717 -174.79422808 66.54353065 -169.89453125 65.828125 C-166.88176343 64.35379181 -165.50203105 63.21081987 -164.14453125 60.12109375 C-163.65224111 58.65820883 -163.1937308 57.18378603 -162.7578125 55.703125 C-154.07285969 26.77948126 -137.28742135 4.71280182 -110.76953125 -9.796875 C-76.35575404 -27.99932954 -30.4229554 -25.34294971 0 0 Z " fill="#FDF8ED" transform="translate(486.89453125,119.171875)"/>
<path d="M0 0 C1.5078125 2.15234375 1.5078125 2.15234375 3.125 4.9375 C15.51646047 24.91873001 34.5621765 36.29099922 56.8515625 42.30859375 C79.26073255 47.22971422 103.31577021 43.4965592 123.24609375 32.15234375 C133.4652716 25.60425909 141.94743705 17.8782587 149 8 C152.04465492 9.39669849 154.74810228 11.14267322 157.51611328 13.02099609 C178.83571647 27.36414789 203.80302552 33.54440054 229.3125 28.8125 C245.07535257 25.59590997 259.86150078 19.3462938 271.78125 8.40625 C274 7 274 7 276.41015625 7.1328125 C279.30847354 8.10328978 282.11529462 9.20056397 284.9375 10.375 C302.33139842 17.06496093 319.66262626 17.18208784 338 15 C338.14692389 20.75347705 338.28899949 26.50705009 338.42724609 32.26074219 C338.47452934 34.20348058 338.52296741 36.14619133 338.57275391 38.08886719 C338.98952241 54.40237721 339 70.67218156 339 87 C244.95 87 150.9 87 54 87 C54 100.2 54 113.4 54 127 C53.87426455 143.61008708 53.87426455 143.61008708 53.73754883 151.73999023 C53.7033156 153.92707597 53.67562895 156.11427133 53.65356445 158.30151367 C53.62008121 161.58548393 53.56804002 164.86869535 53.51171875 168.15234375 C53.50532883 169.11784653 53.4989389 170.0833493 53.49235535 171.07810974 C53.29534417 180.1481915 51.52117738 187.47882262 45 194 C40.53631412 196.73459493 36.0873713 196.63592141 31 196 C25.54696725 193.4754478 23.52250244 190.23185691 21 185 C17.85934496 174.99102242 18.82506968 163.09382654 18.68359375 152.703125 C18.66281265 151.3894696 18.64203156 150.07581421 18.62062073 148.72235107 C18.57714213 145.96271698 18.53617536 143.2030623 18.49731445 140.44335938 C18.44827862 136.96363868 18.39466984 133.48400881 18.33933926 130.00438309 C18.28567598 126.61232286 18.23463524 123.22022574 18.18359375 119.828125 C18.16485703 118.60877258 18.1461203 117.38942017 18.1268158 116.13311768 C17.99027718 106.41910121 18 96.71800625 18 87 C-19.29 87 -56.58 87 -95 87 C-94.690625 76.3575 -94.38125 65.715 -94.0625 54.75 C-93.96718994 51.41358398 -93.87187988 48.07716797 -93.77368164 44.63964844 C-93.69442802 41.96288307 -93.61493527 39.28612476 -93.53515625 36.609375 C-93.50680946 35.5916098 -93.50680946 35.5916098 -93.47789001 34.55328369 C-93.23881359 26.00832675 -92.81963979 17.51154293 -92 9 C-91.36698975 9.1330957 -90.73397949 9.26619141 -90.08178711 9.40332031 C-87.39275889 9.96224474 -84.69699985 10.48094151 -82 11 C-81.08089844 11.19078125 -80.16179687 11.3815625 -79.21484375 11.578125 C-55.26766129 15.9952601 -25.4577179 13.54479546 -4.62890625 -0.21484375 C-3 -1 -3 -1 0 0 Z " fill="#FDF7ED" transform="translate(348,336)"/>
<path d="M0 0 C9.12850423 -0.09333752 18.25684017 -0.16408423 27.38572025 -0.20724869 C31.62621674 -0.22798219 35.86638296 -0.25603356 40.10668945 -0.30175781 C44.21107083 -0.3457313 48.3151378 -0.36924364 52.41973686 -0.37950897 C53.97318905 -0.38680925 55.52662718 -0.40105995 57.0799427 -0.42292023 C76.47475599 -0.68461493 93.5074896 4.12160668 107.89428711 17.82177734 C114.31277271 24.16391641 119.03342308 30.65213129 123.1875 38.625 C123.50879883 39.22723389 123.83009766 39.82946777 124.16113281 40.44995117 C130.50852946 53.23171759 131.89411112 67.18803017 133.0625 81.1875 C133.14238159 82.10527222 133.22226318 83.02304443 133.30456543 83.96862793 C133.91364227 90.97584653 134.46652004 97.98666311 135 105 C135.11598541 106.50158661 135.11598541 106.50158661 135.23431396 108.0335083 C147.11575479 262.98612686 147.11575479 262.98612686 111.75 307.625 C89.27008868 333.79392241 58.38508021 351.75801938 24 357 C22.35 357 20.7 357 19 357 C18.01 346.77 17.02 336.54 16 326 C19.609375 325.01 23.21875 324.02 26.9375 323 C42.81583882 318.4497959 56.27231824 312.65046367 69 302 C69.78632812 301.37609375 70.57265625 300.7521875 71.3828125 300.109375 C91.50089478 283.42608725 100.97904003 258.3260206 104 233 C104.46561913 226.83636291 104.40077228 220.66131851 104.36328125 214.484375 C104.36275945 212.73642986 104.36328943 210.98848413 104.36479187 209.24053955 C104.36470285 205.58979424 104.35443974 201.93927287 104.33618164 198.28857422 C104.31383183 193.73211891 104.31308344 189.17599569 104.31943893 184.61950111 C108.08325486 112.55632052 108.08325486 112.55632052 83.328125 49.0703125 C72.14457187 39.12520653 59.85122852 36.5644904 45.3359375 36.48828125 C44.06271637 36.47033005 42.78949524 36.45237885 41.47769165 36.43388367 C38.12731562 36.38917785 34.77729546 36.356727 31.42675781 36.33044434 C27.99400948 36.30042208 24.56148536 36.25396757 21.12890625 36.20898438 C14.41937534 36.1243423 7.70982884 36.05587767 1 36 C0.29235192 27.35664115 -0.14046075 18.79663454 -0.0625 10.125 C-0.05798828 9.13886719 -0.05347656 8.15273438 -0.04882812 7.13671875 C-0.03727969 4.75774203 -0.02100368 2.37890865 0 0 Z " fill="#FCF6EC" transform="translate(712,394)"/>
<path d="M0 0 C7.25904578 -0.07631204 14.51798737 -0.12870984 21.77734375 -0.16479492 C24.24483099 -0.17984452 26.71229165 -0.2002889 29.1796875 -0.22631836 C32.73444191 -0.26286926 36.28884139 -0.27976518 39.84375 -0.29296875 C41.48796936 -0.31619453 41.48796936 -0.31619453 43.16540527 -0.33988953 C51.19987042 -0.34163926 57.96146087 0.6555563 64.25 6.125 C64.87390625 6.64320313 65.4978125 7.16140625 66.140625 7.6953125 C70.99343586 13.71035117 72.61837697 20.58238834 73.1953125 28.1328125 C73.27314972 28.98911758 73.35098694 29.84542267 73.43118286 30.72767639 C73.67992394 33.52559734 73.90395914 36.32476356 74.125 39.125 C74.29102947 41.11762039 74.45737582 43.11021441 74.62402344 45.1027832 C75.03725282 50.13726919 75.42295498 55.17338422 75.79431152 60.21112061 C75.98151106 62.74931308 76.17441215 65.28700854 76.36816406 67.82470703 C78.00945939 89.81428349 78.20135466 111.82318795 78.24497986 133.86352921 C78.24995031 136.04073541 78.25786782 138.21791558 78.26623535 140.39511108 C78.28040034 144.52520934 78.27446629 148.65504221 78.265625 152.78515625 C78.26957275 154.01088348 78.27352051 155.23661072 78.27758789 156.4994812 C78.15185015 180.33270305 72.06062773 200.93836732 55.640625 218.52734375 C45.26573538 228.72931854 27.12089377 240 12 240 C9.1156888 200.87823758 6.37237021 161.76359399 4.29980469 122.58886719 C4.03086835 117.52962393 3.74181468 112.47175433 3.4453125 107.4140625 C2.44687774 90.23773198 1.67361393 73.05539156 1.01174927 55.86276245 C0.92259648 53.54819223 0.83206664 51.23367452 0.73995972 48.91921997 C0.09662085 32.60614516 -0.11511777 16.32534495 0 0 Z " fill="#FDF7ED" transform="translate(714,455)"/>
<path d="M0 0 C2.86297532 2.29179059 4.74170899 4.6450451 6.0859375 8.01953125 C6.33893716 10.48432624 6.33893716 10.48432624 6.34320641 13.30511284 C6.3496553 14.38226268 6.35610419 15.45941252 6.3627485 16.56920326 C6.3596513 17.75187125 6.3565541 18.93453924 6.35336304 20.15304565 C6.35789415 21.40996409 6.36242526 22.66688252 6.36709368 23.96188939 C6.37934271 27.45297939 6.37906099 30.9439737 6.37670493 34.43508029 C6.37629725 38.19931949 6.38733126 41.96352782 6.39682007 45.72775269 C6.41344129 53.10333884 6.41893011 60.47889303 6.42004482 67.85449634 C6.42099473 73.84882459 6.42510217 79.84314228 6.43144608 85.83746719 C6.44906127 102.82740473 6.45828447 119.81731698 6.45678513 136.80726372 C6.45670522 137.7234204 6.4566253 138.63957709 6.45654297 139.58349609 C6.45646121 140.50076957 6.45637945 141.41804306 6.45629521 142.3631127 C6.45548215 157.23185938 6.47462406 172.10050479 6.5028197 186.96922217 C6.5315333 202.23133249 6.54536085 217.4933934 6.54363215 232.75553143 C6.54296774 241.32608702 6.54848247 249.89653644 6.56998825 258.46706772 C6.58817999 265.76371612 6.59256395 273.06021023 6.5789694 280.35687147 C6.57242962 284.08019054 6.57235858 287.80321344 6.5896759 291.52650452 C6.60825199 295.56191146 6.59587871 299.59662972 6.58041382 303.63204956 C6.59070094 304.81025611 6.60098807 305.98846266 6.61158693 307.20237243 C6.5585527 313.44339909 6.3328503 317.3030818 2.0859375 322.01953125 C-1.29855121 324.83993851 -4.41337276 325.6720195 -8.8515625 325.50390625 C-12.72512242 324.59420657 -15.46550596 322.07030034 -17.9140625 319.01953125 C-19.61126953 315.42450186 -20.16531391 312.58782167 -20.17133141 308.6265192 C-20.1777803 307.55086171 -20.18422919 306.47520422 -20.1908735 305.36695105 C-20.1862277 303.60315475 -20.1862277 303.60315475 -20.18148804 301.8037262 C-20.18601915 300.55003689 -20.19055026 299.29634759 -20.19521868 298.0046677 C-20.20745169 294.52723847 -20.20718788 291.04990542 -20.20482993 287.57245958 C-20.20442185 283.82118966 -20.21546 280.06995061 -20.22494507 276.31869507 C-20.24155697 268.97065158 -20.24705467 261.62264017 -20.24816982 254.27457947 C-20.24912007 248.30268169 -20.25322921 242.3307945 -20.25957108 236.35890007 C-20.27718291 219.4302082 -20.28640987 202.50154168 -20.28491013 185.57284058 C-20.28483022 184.66023629 -20.2847503 183.74763201 -20.28466797 182.80737305 C-20.28458621 181.89365568 -20.28450445 180.97993832 -20.28442021 180.03853255 C-20.28360701 165.22481477 -20.30275335 150.4111986 -20.3309447 135.59751023 C-20.35965814 120.38960882 -20.37348589 105.18175699 -20.37175715 89.97382778 C-20.37109278 81.43458607 -20.37660564 72.89545091 -20.39811325 64.3562336 C-20.41630467 57.08705761 -20.42068913 49.81803649 -20.4070944 42.54884762 C-20.40055476 38.83969805 -20.40048313 35.13084579 -20.4178009 31.42172432 C-20.43637743 27.40169674 -20.42400355 23.38236047 -20.40853882 19.36231995 C-20.41882594 18.18868647 -20.42911307 17.01505299 -20.43971193 15.80585486 C-20.38667593 9.58826254 -20.15814359 5.71453073 -15.9140625 1.01953125 C-11.49099547 -2.04464169 -4.80377051 -2.46070694 0 0 Z " fill="#211D18" transform="translate(485.9140625,479.98046875)"/>
<path d="M0 0 C3.52433575 2.22186384 5.48519313 4.14484812 7 8 C7.23994446 10.8019104 7.23994446 10.8019104 7.22387695 14.06884766 C7.22171677 15.29252045 7.21955658 16.51619324 7.21733093 17.77694702 C7.20399209 19.11432404 7.19012712 20.4516959 7.17578125 21.7890625 C7.16746318 23.18526961 7.15960271 24.58147951 7.1521759 25.97769165 C7.05756074 40.09293166 6.70133182 54.20262787 6.25299835 68.31066895 C6.1858923 70.42567022 6.12018708 72.54071202 6.05462646 74.65576172 C5.18117831 102.63368581 3.88701233 130.57996041 2.20709229 158.52166748 C2.00031052 161.9947845 1.80084911 165.46825662 1.60302734 168.94189453 C-0.65150911 208.17840426 -4.68307688 247.13399533 -9.31657887 286.14872265 C-9.84064372 290.58325833 -10.33135855 295.02060021 -10.80810547 299.46044922 C-10.99934242 301.18840981 -10.99934242 301.18840981 -11.19444275 302.95127869 C-11.4286879 305.07071389 -11.65460289 307.19109513 -11.87013245 309.31251526 C-12.54812182 315.31715179 -13.39895547 320.42604969 -17.875 324.85546875 C-20.43263127 326.23301648 -22.10738213 326.36982322 -25 326.3125 C-25.845625 326.30863281 -26.69125 326.30476563 -27.5625 326.30078125 C-30.18495046 325.97717759 -31.78167242 325.42200486 -34 324 C-40.61734789 314.99305426 -37.71691943 304.3737719 -36.45505142 293.90666962 C-36.06306323 290.65092813 -35.6839173 287.39372206 -35.30362892 284.13659668 C-34.99749195 281.5167254 -34.68958332 278.8970658 -34.38165283 276.27740479 C-30.35167949 241.89591151 -26.95862484 207.56994265 -25 173 C-24.93037048 171.77309448 -24.86074097 170.54618896 -24.78900146 169.28210449 C-23.82760457 152.21035374 -22.94233921 135.13510188 -22.1451416 118.05490112 C-22.01258141 115.2648101 -21.87138838 112.4753182 -21.72753906 109.68579102 C-21.14878154 98.03927757 -20.85531855 86.39326824 -20.62407112 74.73566818 C-20.5703237 72.02790811 -20.51513482 69.32018081 -20.45957947 66.61245728 C-20.42223183 64.78265462 -20.38492436 62.95285115 -20.34765625 61.12304688 C-20.32900292 60.20794531 -20.3103496 59.29284374 -20.29113102 58.35001183 C-20.19615611 53.64123259 -20.1064751 48.93243718 -20.02587891 44.22338867 C-19.94633019 39.59948471 -19.85284264 34.97604545 -19.75005722 30.35260201 C-19.71384203 28.60764987 -19.68274687 26.86258323 -19.65701675 25.11744499 C-19.62067414 22.69231997 -19.56652352 20.26819052 -19.50830078 17.84350586 C-19.49878387 16.77992355 -19.49878387 16.77992355 -19.48907471 15.69485474 C-19.35423631 11.09841095 -18.39728038 7.9170231 -16 4 C-10.88493148 -0.73143838 -6.76901212 -1.71869448 0 0 Z " fill="#201C18" transform="translate(325,479)"/>
<path d="M0 0 C4.49048212 2.2876041 6.76714251 4.52953496 9 9 C9.42323303 11.82617188 9.42323303 11.82617188 9.49243164 14.96875 C9.52587173 16.16071991 9.55931183 17.35268982 9.59376526 18.58078003 C9.61567429 19.87412262 9.63758331 21.16746521 9.66015625 22.5 C9.69386008 23.87227643 9.72892031 25.24452014 9.76524353 26.61672974 C9.84033768 29.54744278 9.90685361 32.478174 9.96655273 35.40924072 C10.06115814 40.03609041 10.17582114 44.6622977 10.29492188 49.28857422 C10.33500587 50.85140954 10.37507542 52.41424524 10.41513062 53.9770813 C10.43502422 54.75215153 10.45491783 55.52722176 10.47541428 56.32577896 C10.53534474 58.68711422 10.59344527 61.04848808 10.65103149 63.40988159 C11.12390305 82.69213898 11.85483469 101.96372634 12.64764404 121.23524475 C12.86853552 126.61837649 13.07141503 132.00138242 13.24671936 137.38618469 C15.10270283 193.34085225 18.7492767 251.38569415 28.60888672 306.54370117 C29.36365911 311.28387908 29.77172057 315.34631306 27.6875 319.8125 C25.21886433 323.01258327 23.89329386 324.70223538 20 326 C11.165 326.57 11.165 326.57 7 323 C4.05586271 318.11702923 3.21580488 313.59548489 2.48828125 308.05078125 C2.36584549 307.17609695 2.24340973 306.30141266 2.11726379 305.40022278 C1.73112183 302.60179699 1.36310265 299.8015023 1 297 C0.82497955 295.66869049 0.82497955 295.66869049 0.64642334 294.31048584 C-0.22775067 287.60909826 -1.0337909 280.90059934 -1.8125 274.1875 C-1.93839508 273.10273376 -2.06429016 272.01796753 -2.19400024 270.90032959 C-7.95287382 220.77984519 -11.77712884 170.39583595 -14 120 C-14.05113953 118.86294617 -14.10227905 117.72589233 -14.15496826 116.55438232 C-15.35764195 89.68937262 -16.18160972 62.82760003 -16.29653931 35.93429565 C-16.30710196 33.4960606 -16.32199046 31.0578401 -16.34140015 28.61965942 C-16.36488269 25.25144561 -16.36760998 21.88390393 -16.36328125 18.515625 C-16.37239532 17.51947678 -16.3815094 16.52332855 -16.39089966 15.49699402 C-16.35773813 10.52758458 -16.30106355 7.00062339 -13 3 C-9.04758244 -0.27486027 -4.98604927 -0.87989105 0 0 Z " fill="#201C19" transform="translate(611,478)"/>
<path d="M0 0 C4.28590933 2.79515826 7.22425239 5.92275717 8.875 10.875 C9.41596392 16.60921758 8.44856201 19.38252204 4.875 23.875 C2.40406284 26.74128711 0.44696657 27.70995704 -3.39453125 28.11328125 C-9.19787413 28.28265685 -12.58134729 27.86454872 -17.125 23.875 C-19.9749099 20.63199908 -20.99162354 18.00869988 -21.5 13.6875 C-21.01279425 8.7342415 -19.34042566 5.63197103 -16.125 1.875 C-10.85836201 -1.78874817 -6.01001451 -2.16360522 0 0 Z " fill="#201C19" transform="translate(412.125,774.125)"/>
<path d="M0 0 C3.66161951 2.17214717 6.23441803 4.78782854 8.5 8.375 C9.51220163 13.68905854 8.72085708 17.63552053 6.25 22.3125 C3.30898807 25.82537536 1.30825773 27.6868193 -3.33203125 28.31640625 C-7.61246464 28.51534693 -10.44728226 28.25588784 -14.375 26.4375 C-18.58719205 22.52617881 -20.69618678 19.16466916 -21.5 13.4375 C-20.72837439 8.13257396 -18.35583374 5.22355728 -14.4375 1.6875 C-9.68910036 -1.5998536 -5.42010293 -1.46513562 0 0 Z " fill="#211D19" transform="translate(388,678)"/>
<path d="M0 0 C6.40327134 5.38456908 6.40327134 5.38456908 7.203125 9.83203125 C7.50457946 14.84028597 7.29044294 18.39637265 4.0625 22.375 C0.41725566 25.93507508 -2.51808585 27.08375662 -7.5625 27.75 C-12.41006291 27.17486542 -15.62094426 25.56557249 -19.25 22.3125 C-21.77706584 17.96910559 -23.06591964 14.31000781 -22.25 9.3125 C-20.3504404 5.05878533 -18.24984507 2.02350094 -14.4375 -0.6875 C-9.0051865 -2.39175522 -5.12480875 -2.66095839 0 0 Z " fill="#1F1B19" transform="translate(558.25,581.6875)"/>
<path d="M0 0 C40.92 0 81.84 0 124 0 C124 0.33 124 0.66 124 1 C120.7 1.33 117.4 1.66 114 2 C114 2.33 114 2.66 114 3 C79.68 3 45.36 3 10 3 C10 2.67 10 2.34 10 2 C6.7 1.67 3.4 1.34 0 1 C0 0.67 0 0.34 0 0 Z " fill="#2F2B26" transform="translate(415,939)"/>
<path d="M0 0 C0.99 0.33 1.98 0.66 3 1 C3.06943717 8.6580332 3.12277913 16.31603387 3.15543652 23.97430992 C3.17110864 27.53018671 3.19237444 31.08584852 3.22631836 34.64160156 C3.26507759 38.72723482 3.27969633 42.81264141 3.29296875 46.8984375 C3.30845261 48.17866791 3.32393646 49.45889832 3.33988953 50.77792358 C3.34011612 51.95899689 3.34034271 53.14007019 3.34057617 54.35693359 C3.34723801 55.40062103 3.35389984 56.44430847 3.36076355 57.5196228 C3.24171158 58.33814728 3.12265961 59.15667175 3 60 C2.01 60.66 1.02 61.32 0 62 C0 41.54 0 21.08 0 0 Z " fill="#2D2924" transform="translate(872,550)"/>
<path d="M0 0 C0.05796132 4.10410755 0.09358313 8.20811016 0.125 12.3125 C0.14175781 13.47974609 0.15851562 14.64699219 0.17578125 15.84960938 C0.18222656 16.96787109 0.18867187 18.08613281 0.1953125 19.23828125 C0.20578613 20.26993408 0.21625977 21.30158691 0.22705078 22.36450195 C0 25 0 25 -2 28 C-3.19190363 19.65667456 -3.09283549 11.40676978 -3 3 C-5.97 2.505 -5.97 2.505 -9 2 C-9 1.67 -9 1.34 -9 1 C-2.25 0 -2.25 0 0 0 Z " fill="#E8E6DF" transform="translate(686,351)"/>
<path d="M0 0 C2 2 2 2 2.21118164 3.95532227 C2.19434326 4.73447998 2.17750488 5.5136377 2.16015625 6.31640625 C2.14919922 7.16267578 2.13824219 8.00894531 2.12695312 8.88085938 C2.09504883 10.20827148 2.09504883 10.20827148 2.0625 11.5625 C2.02821211 13.31372249 1.99803848 15.06503204 1.97265625 16.81640625 C1.95468994 17.59443604 1.93672363 18.37246582 1.91821289 19.17407227 C1.79514361 21.02006276 1.79514361 21.02006276 3 22 C3.07244053 24.01964199 3.08377188 26.04167124 3.0625 28.0625 C3.05347656 29.16722656 3.04445313 30.27195312 3.03515625 31.41015625 C3.02355469 32.26480469 3.01195312 33.11945312 3 34 C2.01 33.67 1.02 33.34 0 33 C-0.16806963 28.94346228 -0.32857949 24.88670199 -0.48217773 20.82958984 C-0.53545245 19.45027681 -0.59076982 18.07104107 -0.64819336 16.69189453 C-0.7305101 14.70627168 -0.80480377 12.72032137 -0.87890625 10.734375 C-0.9260376 9.54038086 -0.97316895 8.34638672 -1.02172852 7.11621094 C-1.00340898 4.48890064 -0.7972382 2.48029663 0 0 Z " fill="#F1EEE6" transform="translate(719,560)"/>
<path d="M0 0 C0.84175781 -0.00128906 1.68351562 -0.00257812 2.55078125 -0.00390625 C3.87142578 0.00189453 3.87142578 0.00189453 5.21875 0.0078125 C6.09917969 0.00394531 6.97960937 0.00007813 7.88671875 -0.00390625 C9.14935547 -0.00197266 9.14935547 -0.00197266 10.4375 0 C11.21029297 0.00112793 11.98308594 0.00225586 12.77929688 0.00341797 C14.71875 0.1328125 14.71875 0.1328125 16.71875 1.1328125 C16.71875 1.7928125 16.71875 2.4528125 16.71875 3.1328125 C9.45875 3.1328125 2.19875 3.1328125 -5.28125 3.1328125 C-5.61125 2.4728125 -5.94125 1.8128125 -6.28125 1.1328125 C-3.95781444 -0.02890528 -2.58491684 0.00377281 0 0 Z " fill="#E7E4DD" transform="translate(417.28125,69.8671875)"/>
<path d="M0 0 C0.33 0 0.66 0 1 0 C1.33 1.98 1.66 3.96 2 6 C2.33 6 2.66 6 3 6 C4.58773946 24.08888889 4.58773946 24.08888889 4 29 C3.34 29.66 2.68 30.32 2 31 C0.09550849 27.19101698 0.99325653 22.47005846 1.0625 18.28515625 C1.16314904 14.99257189 1.16314904 14.99257189 0 12 C-0.068991 9.93854893 -0.08467727 7.87498599 -0.0625 5.8125 C-0.05347656 4.72582031 -0.04445313 3.63914062 -0.03515625 2.51953125 C-0.02355469 1.68808594 -0.01195312 0.85664062 0 0 Z " fill="#27241F" transform="translate(717,587)"/>
<path d="M0 0 C0.66 0 1.32 0 2 0 C2 10.23 2 20.46 2 31 C1.67 31 1.34 31 1 31 C0.67 29.35 0.34 27.7 0 26 C-0.33 26 -0.66 26 -1 26 C-1.0292483 22.79168609 -1.04688189 19.58340693 -1.0625 16.375 C-1.07087891 15.47136719 -1.07925781 14.56773437 -1.08789062 13.63671875 C-1.10491895 8.97095711 -0.96829423 4.58986715 0 0 Z " fill="#34312A" transform="translate(687,369)"/>
<path d="M0 0 C0.66 0.33 1.32 0.66 2 1 C2 2.65 2 4.3 2 6 C1.34 6 0.68 6 0 6 C0.33 6.66 0.66 7.32 1 8 C1.08449628 9.7404417 1.10723024 11.48409722 1.09765625 13.2265625 C1.09282227 14.7734375 1.09282227 14.7734375 1.08789062 16.3515625 C1.07951172 17.43179688 1.07113281 18.51203125 1.0625 19.625 C1.05798828 20.71296875 1.05347656 21.8009375 1.04882812 22.921875 C1.03701776 25.61463789 1.02054778 28.30729188 1 31 C0.67 31 0.34 31 0 31 C-0.33 27.04 -0.66 23.08 -1 19 C-1.33 19 -1.66 19 -2 19 C-2.24991456 12.34949576 -1.73955334 6.43013467 0 0 Z " fill="#26231F" transform="translate(186,230)"/>
<path d="M0 0 C0.94101562 0.00322266 1.88203125 0.00644531 2.8515625 0.00976562 C3.83640625 0.01814453 4.82125 0.02652344 5.8359375 0.03515625 C6.82851563 0.03966797 7.82109375 0.04417969 8.84375 0.04882812 C11.2995391 0.0606348 13.75520854 0.07710225 16.2109375 0.09765625 C15.8809375 1.08765625 15.5509375 2.07765625 15.2109375 3.09765625 C12.10684943 3.15572668 9.0029011 3.19127539 5.8984375 3.22265625 C4.57682617 3.24779297 4.57682617 3.24779297 3.22851562 3.2734375 C2.38095703 3.27988281 1.53339844 3.28632813 0.66015625 3.29296875 C-0.12012939 3.30344238 -0.90041504 3.31391602 -1.7043457 3.32470703 C-3.7890625 3.09765625 -3.7890625 3.09765625 -6.7890625 1.09765625 C-4.33631109 -0.12871945 -2.7384844 -0.01649689 0 0 Z " fill="#2D2A26" transform="translate(553.7890625,363.90234375)"/>
<path d="M0 0 C0.33 0 0.66 0 1 0 C1 3.3 1 6.6 1 10 C0.34 10 -0.32 10 -1 10 C-0.83628906 10.53109375 -0.67257813 11.0621875 -0.50390625 11.609375 C0.11356377 14.53876764 0.09501925 17.25822936 0.0625 20.25 C0.05347656 21.32765625 0.04445312 22.4053125 0.03515625 23.515625 C0.02355469 24.33546875 0.01195312 25.1553125 0 26 C-0.99 25.34 -1.98 24.68 -3 24 C-3.28051758 21.78515625 -3.28051758 21.78515625 -3.14453125 19.0625 C-3.09876953 18.08539062 -3.05300781 17.10828125 -3.00585938 16.1015625 C-2.94205078 15.07804688 -2.87824219 14.05453125 -2.8125 13 C-2.76802734 11.97648438 -2.72355469 10.95296875 -2.67773438 9.8984375 C-2.27015462 2.27015462 -2.27015462 2.27015462 0 0 Z " fill="#2B2924" transform="translate(218,650)"/>
<path d="M0 0 C1.66674321 2.91824244 2.2432008 4.97594379 2.1953125 8.328125 C2.18886719 9.12734375 2.18242187 9.9265625 2.17578125 10.75 C2.15902344 11.575 2.14226562 12.4 2.125 13.25 C2.11597656 14.09046875 2.10695313 14.9309375 2.09765625 15.796875 C2.07415817 17.86470604 2.03828908 19.93238995 2 22 C1.67 22 1.34 22 1 22 C0.67 23.65 0.34 25.3 0 27 C-0.33 27 -0.66 27 -1 27 C-1.02898816 23.06251542 -1.04679464 19.12505821 -1.0625 15.1875 C-1.07087891 14.06794922 -1.07925781 12.94839844 -1.08789062 11.79492188 C-1.09111328 10.72177734 -1.09433594 9.64863281 -1.09765625 8.54296875 C-1.10289307 7.55321045 -1.10812988 6.56345215 -1.11352539 5.54370117 C-1 3 -1 3 0 0 Z " fill="#2D2217" transform="translate(329,534)"/>
<path d="M0 0 C0.33 0 0.66 0 1 0 C1.33 2.31 1.66 4.62 2 7 C2.33 7 2.66 7 3 7 C3.11547323 15.07029553 2.90041311 22.97667603 2 31 C1.67 31 1.34 31 1 31 C0.09429581 24.10381142 -0.1222984 17.38791455 -0.0625 10.4375 C-0.05798828 9.42880859 -0.05347656 8.42011719 -0.04882812 7.38085938 C-0.03716769 4.92050853 -0.02080378 2.46028761 0 0 Z " fill="#292525" transform="translate(251,400)"/>
<path d="M0 0 C0.33 0 0.66 0 1 0 C1 8.58 1 17.16 1 26 C0.34 26.33 -0.32 26.66 -1 27 C-1.90238747 24.29283758 -2.11851302 22.76223232 -2.09765625 19.98828125 C-2.09443359 19.23095703 -2.09121094 18.47363281 -2.08789062 17.69335938 C-2.07951172 16.90767578 -2.07113281 16.12199219 -2.0625 15.3125 C-2.05798828 14.51521484 -2.05347656 13.71792969 -2.04882812 12.89648438 C-2.0370585 10.93095743 -2.01912348 8.96546915 -2 7 C-1.67 7 -1.34 7 -1 7 C-0.67 4.69 -0.34 2.38 0 0 Z " fill="#2B2821" transform="translate(231,369)"/>
<path d="M0 0 C9.57 0 19.14 0 29 0 C28.01 1.485 28.01 1.485 27 3 C24.2114711 3.22107787 21.65346819 3.28107535 18.875 3.1875 C18.12089844 3.17396484 17.36679687 3.16042969 16.58984375 3.14648438 C14.72625873 3.11109985 12.86304022 3.05729167 11 3 C11 2.67 11 2.34 11 2 C7.37 1.67 3.74 1.34 0 1 C0 0.67 0 0.34 0 0 Z " fill="#2B2822" transform="translate(374,938)"/>
<path d="M0 0 C3.0103245 3.0103245 2.97819673 5.22903621 3.09765625 9.453125 C3.08605469 10.70609375 3.07445312 11.9590625 3.0625 13.25 C3.05347656 14.51328125 3.04445312 15.7765625 3.03515625 17.078125 C3.02355469 18.04234375 3.01195312 19.0065625 3 20 C2.67 20 2.34 20 2 20 C1.67 21.98 1.34 23.96 1 26 C0.67 26 0.34 26 0 26 C0 17.42 0 8.84 0 0 Z " fill="#2C2924" transform="translate(252,368)"/>
<path d="M0 0 C0.33 0 0.66 0 1 0 C1.33 3.3 1.66 6.6 2 10 C2.33 10 2.66 10 3 10 C3.05383848 12.45862401 3.09359038 14.9160755 3.125 17.375 C3.14175781 18.07367188 3.15851562 18.77234375 3.17578125 19.4921875 C3.19344267 21.32897486 3.10303261 23.16601963 3 25 C2.34 25.66 1.68 26.32 1 27 C0.04623433 23.79217914 -0.11621181 20.91812604 -0.09765625 17.578125 C-0.09443359 16.55332031 -0.09121094 15.52851563 -0.08789062 14.47265625 C-0.07951172 13.40917969 -0.07113281 12.34570312 -0.0625 11.25 C-0.05798828 10.17105469 -0.05347656 9.09210938 -0.04882812 7.98046875 C-0.03705727 5.32025617 -0.02061399 2.66015635 0 0 Z " fill="#F5F0E8" transform="translate(684,385)"/>
<path d="M0 0 C1.02480469 0.00322266 2.04960938 0.00644531 3.10546875 0.00976562 C4.16894531 0.01814453 5.23242188 0.02652344 6.328125 0.03515625 C7.40707031 0.03966797 8.48601563 0.04417969 9.59765625 0.04882812 C12.25786883 0.06059898 14.91796865 0.07704226 17.578125 0.09765625 C17.578125 0.42765625 17.578125 0.75765625 17.578125 1.09765625 C13.123125 1.59265625 13.123125 1.59265625 8.578125 2.09765625 C8.578125 2.42765625 8.578125 2.75765625 8.578125 3.09765625 C6.32839053 3.15179425 4.07828117 3.19051116 1.828125 3.22265625 C0.57515625 3.24585938 -0.6778125 3.2690625 -1.96875 3.29296875 C-5.15007992 3.11302927 -6.78709396 2.78764207 -9.421875 1.09765625 C-6.21405414 0.14389058 -3.34000104 -0.01855556 0 0 Z " fill="#2C2923" transform="translate(597.421875,936.90234375)"/>
<path d="M0 0 C1.89551022 -0.05441656 3.7914792 -0.09298035 5.6875 -0.125 C6.74324219 -0.14820313 7.79898438 -0.17140625 8.88671875 -0.1953125 C12.02251859 0.00141271 14.17645373 0.66942346 17 2 C17 2.33 17 2.66 17 3 C9.41 3 1.82 3 -6 3 C-6 2.67 -6 2.34 -6 2 C-4.02 1.67 -2.04 1.34 0 1 C0 0.67 0 0.34 0 0 Z " fill="#2E2317" transform="translate(599,913)"/>
<path d="M0 0 C0.33 0 0.66 0 1 0 C1.33 2.31 1.66 4.62 2 7 C2.33 7 2.66 7 3 7 C3.05423638 8.91635217 3.09289963 10.83314925 3.125 12.75 C3.14820313 13.81734375 3.17140625 14.8846875 3.1953125 15.984375 C3.00487687 18.92470106 2.52670104 20.52361878 1 23 C-0.2263757 20.54724859 -0.11415314 18.9494219 -0.09765625 16.2109375 C-0.09443359 15.26992188 -0.09121094 14.32890625 -0.08789062 13.359375 C-0.07951172 12.37453125 -0.07113281 11.3896875 -0.0625 10.375 C-0.05798828 9.38242187 -0.05347656 8.38984375 -0.04882812 7.3671875 C-0.03702145 4.9113984 -0.020554 2.45572896 0 0 Z " fill="#2A2720" transform="translate(712,474)"/>
<path d="M0 0 C0.33 0 0.66 0 1 0 C1 7.26 1 14.52 1 22 C0.34 22.33 -0.32 22.66 -1 23 C-2.00109515 19.68929162 -2.10356134 16.69915231 -2.0625 13.25 C-2.05347656 12.26515625 -2.04445312 11.2803125 -2.03515625 10.265625 C-2.02355469 9.51796875 -2.01195312 8.7703125 -2 8 C-1.67 8 -1.34 8 -1 8 C-0.67 5.36 -0.34 2.72 0 0 Z " fill="#28251E" transform="translate(230,402)"/>
<path d="M0 0 C6.93 0 13.86 0 21 0 C21.33 0.66 21.66 1.32 22 2 C18.53777385 3.06723961 15.35960734 3.10173486 11.75 3.0625 C10.67234375 3.05347656 9.5946875 3.04445313 8.484375 3.03515625 C7.66453125 3.02355469 6.8446875 3.01195312 6 3 C6 2.67 6 2.34 6 2 C3.03 1.505 3.03 1.505 0 1 C0 0.67 0 0.34 0 0 Z " fill="#2F2C24" transform="translate(314,936)"/>
<path d="M0 0 C0.33 0 0.66 0 1 0 C1 6.27 1 12.54 1 19 C0.34 19 -0.32 19 -1 19 C-2.04976964 15.85069107 -2.10131595 13.61185544 -2.0625 10.3125 C-2.05347656 9.31863281 -2.04445312 8.32476562 -2.03515625 7.30078125 C-2.02355469 6.54152344 -2.01195312 5.78226562 -2 5 C-1.67 5 -1.34 5 -1 5 C-0.67 3.35 -0.34 1.7 0 0 Z " fill="#2E2B25" transform="translate(227,481)"/>
<path d="M0 0 C1.546875 -0.03867187 1.546875 -0.03867187 3.125 -0.078125 C6.32882325 0.28752874 7.65087721 1.10416668 10 3.25 C7.04142591 3.30379226 4.08382279 3.34357093 1.125 3.375 C-0.13763672 3.40013672 -0.13763672 3.40013672 -1.42578125 3.42578125 C-2.23144531 3.43222656 -3.03710938 3.43867187 -3.8671875 3.4453125 C-4.61081543 3.45578613 -5.35444336 3.46625977 -6.12060547 3.47705078 C-8 3.25 -8 3.25 -10 1.25 C-6.63857556 0.24803695 -3.50092795 0.05251392 0 0 Z " fill="#302616" transform="translate(312,911.75)"/>
<path d="M0 0 C2.25998595 3.59462331 2.20868087 6.56595675 2.125 10.75 C2.10695312 11.92046875 2.08890625 13.0909375 2.0703125 14.296875 C2.03550781 15.63492188 2.03550781 15.63492188 2 17 C1.01 17.33 0.02 17.66 -1 18 C-1.02698422 15.56242587 -1.04683099 13.12515085 -1.0625 10.6875 C-1.07087891 9.99720703 -1.07925781 9.30691406 -1.08789062 8.59570312 C-1.10307906 5.4516975 -1.00193327 3.00579981 0 0 Z " fill="#312617" transform="translate(248,503)"/>
<path d="M0 0 C0.66 0 1.32 0 2 0 C3.2062252 3.61867559 3.10816918 6.92506251 3.0625 10.6875 C3.05798828 11.38939453 3.05347656 12.09128906 3.04882812 12.81445312 C3.03706927 14.54300538 3.01913454 16.27151365 3 18 C1.51171875 16.98046875 1.51171875 16.98046875 0 15 C-0.2172101 12.35003674 -0.28351554 9.94923442 -0.1875 7.3125 C-0.17396484 6.61060547 -0.16042969 5.90871094 -0.14648438 5.18554688 C-0.11120182 3.45670171 -0.05739583 1.72825235 0 0 Z " fill="#2C2218" transform="translate(688,445)"/>
<path d="M0 0 C0.33 0 0.66 0 1 0 C1.33 7.26 1.66 14.52 2 22 C1.01 21.67 0.02 21.34 -1 21 C-0.67 14.07 -0.34 7.14 0 0 Z " fill="#272520" transform="translate(723,652)"/>
<path d="M0 0 C0.66 0.66 1.32 1.32 2 2 C-3.17317421 3.06309567 -8.12369336 3.11693938 -13.375 3.0625 C-14.20644531 3.05798828 -15.03789063 3.05347656 -15.89453125 3.04882812 C-17.92971897 3.03713164 -19.96486923 3.01919935 -22 3 C-22 2.67 -22 2.34 -22 2 C-17.59748773 1.14097322 -13.47579506 1 -9 1 C-5.98675805 -0.50662097 -3.31713623 -0.17770373 0 0 Z " fill="#EDECE8" transform="translate(679,325)"/>
<path d="M0 0 C2 2 2 2 2.1953125 5.9140625 C2.18200376 7.48449351 2.15813602 9.05486221 2.125 10.625 C2.11597656 11.42679688 2.10695313 12.22859375 2.09765625 13.0546875 C2.07406223 15.03658523 2.03819065 17.01832981 2 19 C-0.87228862 15.79513059 -1.36727621 13.76885401 -1.25 9.5 C-1.23453125 8.5615625 -1.2190625 7.623125 -1.203125 6.65625 C-1.02359478 4.30854716 -0.65896381 2.2532311 0 0 Z " fill="#332F29" transform="translate(792,542)"/>
<path d="M0 0 C2.10209857 3.15314785 2.2434761 3.86103081 2.1953125 7.44921875 C2.18886719 8.29677734 2.18242188 9.14433594 2.17578125 10.01757812 C2.15902344 10.89865234 2.14226563 11.77972656 2.125 12.6875 C2.11597656 13.58017578 2.10695313 14.47285156 2.09765625 15.39257812 C2.07409748 17.59532314 2.04120329 19.79752588 2 22 C1.67 22 1.34 22 1 22 C0.67 18.7 0.34 15.4 0 12 C-0.33 12 -0.66 12 -1 12 C-1.02712066 10.56260487 -1.04645067 9.12506137 -1.0625 7.6875 C-1.07410156 6.88699219 -1.08570313 6.08648438 -1.09765625 5.26171875 C-1 3 -1 3 0 0 Z " fill="#F3EFE5" transform="translate(817,532)"/>
<path d="M0 0 C6.125 -0.4375 6.125 -0.4375 9 1 C10.87056791 1.2275015 12.74685958 1.40962811 14.625 1.5625 C15.62789063 1.64628906 16.63078125 1.73007813 17.6640625 1.81640625 C18.43492187 1.87699219 19.20578125 1.93757812 20 2 C20 2.33 20 2.66 20 3 C12.74 3 5.48 3 -2 3 C-1.34 2.01 -0.68 1.02 0 0 Z " fill="#292620" transform="translate(268,153)"/>
<path d="M0 0 C3 3 3 3 3.29296875 5.91796875 C3.25816406 6.99691406 3.22335937 8.07585938 3.1875 9.1875 C3.16042969 10.27417969 3.13335937 11.36085938 3.10546875 12.48046875 C3.07066406 13.31191406 3.03585937 14.14335938 3 15 C2.01 15.33 1.02 15.66 0 16 C0 10.72 0 5.44 0 0 Z " fill="#3C2C16" transform="translate(326,593)"/>
<path d="M0 0 C1.485 0.99 1.485 0.99 3 2 C3.36328125 4.75 3.36328125 4.75 3.3125 8 C3.30863281 9.0725 3.30476562 10.145 3.30078125 11.25 C3 14 3 14 1 16 C-0.14077657 12.57767028 -0.09815117 9.91326783 -0.0625 6.3125 C-0.05347656 5.13300781 -0.04445313 3.95351563 -0.03515625 2.73828125 C-0.02355469 1.83464844 -0.01195312 0.93101562 0 0 Z " fill="#2D2216" transform="translate(620,585)"/>
<path d="M0 0 C0.66 0 1.32 0 2 0 C2.39832031 0.81984375 2.79664063 1.6396875 3.20703125 2.484375 C3.73683594 3.56203125 4.26664062 4.6396875 4.8125 5.75 C5.33457031 6.81734375 5.85664063 7.8846875 6.39453125 8.984375 C7.7616692 11.55233242 9.17715463 13.74470783 11 16 C10.01 16 9.02 16 8 16 C6.66141476 13.71125827 5.32898986 11.41930344 4 9.125 C3.6184375 8.47402344 3.236875 7.82304687 2.84375 7.15234375 C0 2.2265625 0 2.2265625 0 0 Z " fill="#EDECE9" transform="translate(367,316)"/>
<path d="M0 0 C2.6900615 0.9991657 5.06048132 2.03780082 7.5 3.5625 C10.05674363 5.03262759 12.10026145 5.58575164 15 6 C15.33 6.99 15.66 7.98 16 9 C11.67734423 8.43102154 8.81856666 6.87210245 5.1875 4.5 C4.21167969 3.8709375 3.23585938 3.241875 2.23046875 2.59375 C1.49441406 2.0678125 0.75835938 1.541875 0 1 C0 0.67 0 0.34 0 0 Z " fill="#F1F1ED" transform="translate(626,314)"/>
<path d="M0 0 C0.33 0 0.66 0 1 0 C1.08333357 4.8333472 0.95261487 9.23692563 0 14 C-2 12 -2 12 -2.1953125 10.0546875 C-2.13020833 8.03645833 -2.06510417 6.01822917 -2 4 C-1.34 4 -0.68 4 0 4 C0 2.68 0 1.36 0 0 Z " fill="#130F1C" transform="translate(222,834)"/>
<path d="M0 0 C0.33 0 0.66 0 1 0 C1.33 4.29 1.66 8.58 2 13 C1.01 13 0.02 13 -1 13 C-1.0272415 11.58344207 -1.04650467 10.16672955 -1.0625 8.75 C-1.07410156 7.96109375 -1.08570313 7.1721875 -1.09765625 6.359375 C-1.00385306 4.09308998 -0.63241063 2.1711105 0 0 Z " fill="#302D28" transform="translate(737,802)"/>
<path d="M0 0 C0.99 0 1.98 0 3 0 C3.33 3.63 3.66 7.26 4 11 C3.01 10.67 2.02 10.34 1 10 C1.020625 9.0925 1.04125 8.185 1.0625 7.25 C1.0110245 4.57327412 0.7784983 2.53011948 0 0 Z " fill="#282520" transform="translate(864,447)"/>
<path d="M0 0 C-4.37236503 2.91491002 -8.26469904 3.22085649 -13.4375 2.5625 C-14.283125 2.376875 -15.12875 2.19125 -16 2 C-16 1.67 -16 1.34 -16 1 C-14.27327966 0.63409254 -12.54346345 0.28277805 -10.8125 -0.0625 C-9.36810547 -0.35833984 -9.36810547 -0.35833984 -7.89453125 -0.66015625 C-4.96389138 -1.00423947 -2.83692932 -0.74164697 0 0 Z " fill="#282520" transform="translate(319,322)"/>
<path d="M0 0 C2.04159095 -0.0272616 4.08328963 -0.04651345 6.125 -0.0625 C7.26195312 -0.07410156 8.39890625 -0.08570313 9.5703125 -0.09765625 C12.8129156 -0.005327 15.81932612 0.38610094 19 1 C15.5647952 3.29013653 14.014669 3.17842973 10 3 C10 2.34 10 1.68 10 1 C6.7 1 3.4 1 0 1 C0 0.67 0 0.34 0 0 Z " fill="#BEBBB3" transform="translate(271,178)"/>
<path d="M0 0 C0.33 0 0.66 0 1 0 C1 1.65 1 3.3 1 5 C1.66 5 2.32 5 3 5 C2.67 8.3 2.34 11.6 2 15 C1.67 15 1.34 15 1 15 C-0.03590199 9.94997778 -0.10251672 5.12583611 0 0 Z " fill="#100E1B" transform="translate(712,794)"/>
<path d="M0 0 C0.66 0.33 1.32 0.66 2 1 C2 5.62 2 10.24 2 15 C1.67 15 1.34 15 1 15 C0.67 13.02 0.34 11.04 0 9 C-0.33 9 -0.66 9 -1 9 C-1.125 2.25 -1.125 2.25 0 0 Z " fill="#282620" transform="translate(849,522)"/>
<path d="M0 0 C0.33 0 0.66 0 1 0 C1 3.63 1 7.26 1 11 C0.01 11 -0.98 11 -2 11 C-2.25 3.375 -2.25 3.375 0 0 Z " fill="#2D2116" transform="translate(302,649)"/>
<path d="M0 0 C2.67927341 4.01891012 2.15601248 6.24161923 2 11 C1.01 11 0.02 11 -1 11 C-1.0270043 9.54176788 -1.04639787 8.08339325 -1.0625 6.625 C-1.07410156 5.81289063 -1.08570313 5.00078125 -1.09765625 4.1640625 C-1 2 -1 2 0 0 Z " fill="#2E2116" transform="translate(244,585)"/>
<path d="M0 0 C3.96 0 7.92 0 12 0 C7.577168 3.317124 6.28089024 3.30466674 1 3 C0.67 2.01 0.34 1.02 0 0 Z " fill="#27231D" transform="translate(414,378)"/>
<path d="M0 0 C2 2 2 2 2.1953125 4.3828125 C2.17210937 5.28773438 2.14890625 6.19265625 2.125 7.125 C2.10695313 8.03507813 2.08890625 8.94515625 2.0703125 9.8828125 C2.03550781 10.93082031 2.03550781 10.93082031 2 12 C-0.88645653 8.49067653 -1.39854465 6.58326342 -1 2 C-0.67 1.34 -0.34 0.68 0 0 Z " fill="#F4F0E8" transform="translate(873,507)"/>
<path d="M0 0 C-0.33 0.66 -0.66 1.32 -1 2 C-2.99609375 2.484375 -2.99609375 2.484375 -5.4375 2.75 C-6.64212891 2.89695312 -6.64212891 2.89695312 -7.87109375 3.046875 C-10 3 -10 3 -12 1 C-10.37681021 0.63762737 -8.7513642 0.28534843 -7.125 -0.0625 C-6.22007812 -0.25972656 -5.31515625 -0.45695312 -4.3828125 -0.66015625 C-2 -1 -2 -1 0 0 Z " fill="#EAE8E3" transform="translate(452,378)"/>
<path d="M0 0 C0.33 0 0.66 0 1 0 C1 3.3 1 6.6 1 10 C0.01 10 -0.98 10 -2 10 C-1.85950482 8.52031676 -1.71245174 7.04125484 -1.5625 5.5625 C-1.48128906 4.73878906 -1.40007812 3.91507813 -1.31640625 3.06640625 C-1 1 -1 1 0 0 Z " fill="#F2EFEA" transform="translate(212,231)"/>
<path d="M0 0 C0.66 0 1.32 0 2 0 C2.92844389 4.33273814 2.92844389 7.66726186 2 12 C1.67 12 1.34 12 1 12 C0.67 8.04 0.34 4.08 0 0 Z " fill="#F2EFEB" transform="translate(734,776)"/>
<path d="M0 0 C2 1 2 1 2.6875 2.5625 C3.14931685 6.16467146 2.5382496 9.41166932 2 13 C1.67 13 1.34 13 1 13 C0.63779734 11.20994059 0.28547531 9.41787943 -0.0625 7.625 C-0.25972656 6.62726562 -0.45695312 5.62953125 -0.66015625 4.6015625 C-1 2 -1 2 0 0 Z " fill="#F8BF04" transform="translate(420,779)"/>
<path d="M0 0 C2.31 0.33 4.62 0.66 7 1 C6.67 1.66 6.34 2.32 6 3 C3.69 3 1.38 3 -1 3 C-0.67 2.01 -0.34 1.02 0 0 Z " fill="#26241F" transform="translate(350,303)"/>
<path d="M0 0 C0.66 0 1.32 0 2 0 C2 2.31 2 4.62 2 7 C1.01 6.67 0.02 6.34 -1 6 C-1.042721 4.33388095 -1.04063832 2.66617115 -1 1 C-0.67 0.67 -0.34 0.34 0 0 Z " fill="#272520" transform="translate(206,778)"/>
<path d="M0 0 C3 3 3 3 3.1875 6.1875 C3.0946875 7.5796875 3.0946875 7.5796875 3 9 C2.01 9 1.02 9 0 9 C0 6.03 0 3.06 0 0 Z " fill="#2A2720" transform="translate(720,638)"/>
<path d="M0 0 C3.36720387 1.39332574 4.9859524 2.9789286 7 6 C4 6 4 6 1.8125 4.125 C0 2 0 2 0 0 Z " fill="#2D2B26" transform="translate(359,351)"/>
<path d="M0 0 C2.97 0 5.94 0 9 0 C8.67 0.99 8.34 1.98 8 3 C5.125 3.1875 5.125 3.1875 2 3 C1.34 2.01 0.68 1.02 0 0 Z " fill="#282420" transform="translate(277,347)"/>
<path d="M0 0 C2.97 0.495 2.97 0.495 6 1 C6 1.66 6 2.32 6 3 C6.99 3 7.98 3 9 3 C9 3.66 9 4.32 9 5 C5.7 4.01 2.4 3.02 -1 2 C-0.67 1.34 -0.34 0.68 0 0 Z " fill="#ECEAE6" transform="translate(257,316)"/>
<path d="M0 0 C0.66 0.66 1.32 1.32 2 2 C-2.95 3.485 -2.95 3.485 -8 5 C-8 4.34 -8 3.68 -8 3 C-7.34 3 -6.68 3 -6 3 C-6 2.34 -6 1.68 -6 1 C-3.125 0.375 -3.125 0.375 0 0 Z " fill="#EFEDE8" transform="translate(321,317)"/>
<path d="M0 0 C2 3.75 2 3.75 2 6 C1.34 6 0.68 6 0 6 C0 7.98 0 9.96 0 12 C-0.33 12 -0.66 12 -1 12 C-1.02698189 10.37509046 -1.04638757 8.75005367 -1.0625 7.125 C-1.07410156 6.22007812 -1.08570313 5.31515625 -1.09765625 4.3828125 C-1 2 -1 2 0 0 Z " fill="#100F0C" transform="translate(197,850)"/>
<path d="M0 0 C0.33 0 0.66 0 1 0 C1 3.3 1 6.6 1 10 C0.01 9.34 -0.98 8.68 -2 8 C-2.47730962 4.27698497 -2.1387261 3.20808915 0 0 Z " fill="#292721" transform="translate(213,716)"/>
<path d="M0 0 C2 2 2 2 2.125 4.625 C2.08375 5.40875 2.0425 6.1925 2 7 C1.01 6.67 0.02 6.34 -1 6 C-1.042721 4.33388095 -1.04063832 2.66617115 -1 1 C-0.67 0.67 -0.34 0.34 0 0 Z " fill="#262520" transform="translate(733,777)"/>
<path d="M0 0 C0.66 0.33 1.32 0.66 2 1 C1.67 2.98 1.34 4.96 1 7 C0.01 7.33 -0.98 7.66 -2 8 C-1.34 5.36 -0.68 2.72 0 0 Z " fill="#E8E7E1" transform="translate(812,648)"/>
<path d="M0 0 C1.485 0.99 1.485 0.99 3 2 C3.1875 5.125 3.1875 5.125 3 8 C2.01 8 1.02 8 0 8 C0 5.36 0 2.72 0 0 Z " fill="#2D2A24" transform="translate(811,493)"/>
<path d="M0 0 C2.64 0.33 5.28 0.66 8 1 C6 3 6 3 2.375 3.125 C1.26125 3.08375 0.1475 3.0425 -1 3 C-0.67 2.01 -0.34 1.02 0 0 Z " fill="#2E241A" transform="translate(317,478)"/>
</svg>
